PathFileType	4	(X/Y/Z)	c:/Users/goper/Files/vsCode/490R/osim_files/C11/C11_Slow_06.trc
DataRate	CameraRate	NumFrames	NumMarkers	Units                	OrigDataRate	OrigDataStartFrame	OrigNumFrames
120.00	120.00	4	36	mm	120.0	298	1188
                Frame#	Time	LPSIS			LASIS			LTH1			LTH2			LTH3			LTH4			LLFE			LMFE			LSH1			LSH2			LSH3			LSH4			LLMAL			LMMAL			LCAL			LMTP5			LTOE			LMTP1			RPSIS			RASIS			RTH1			RTH2			RTH3			RTH4			RLFE			RMFE			RSH1			RSH2			RSH3			RSH4			RLMAL			RMMAL			RCAL			RMTP1			RTOE			RMTP5		
		X1	Y1	Z1	X2	Y2	Z2	X3	Y3	Z3	X4	Y4	Z4	X5	Y5	Z5	X6	Y6	Z6	X7	Y7	Z7	X8	Y8	Z8	X9	Y9	Z9	X10	Y10	Z10	X11	Y11	Z11	X12	Y12	Z12	X13	Y13	Z13	X14	Y14	Z14	X15	Y15	Z15	X16	Y16	Z16	X17	Y17	Z17	X18	Y18	Z18	X19	Y19	Z19	X20	Y20	Z20	X21	Y21	Z21	X22	Y22	Z22	X23	Y23	Z23	X24	Y24	Z24	X25	Y25	Z25	X26	Y26	Z26	X27	Y27	Z27	X28	Y28	Z28	X29	Y29	Z29	X30	Y30	Z30	X31	Y31	Z31	X32	Y32	Z32	X33	Y33	Z33	X34	Y34	Z34	X35	Y35	Z35	X36	Y36	Z36

298	2.47500	2245.51074	1001.15302	311.92877	0.00000	0.00000	0.00000	2071.63208	612.32550	432.00500	2054.12842	567.69684	431.28644	2017.55872	626.81348	453.55457	2008.53442	582.10931	447.05426	0.00000	0.00000	0.00000	2025.28345	519.63336	439.90463	2080.20776	440.54773	455.35361	2118.28491	415.51926	455.95007	2117.12964	487.44699	441.24472	2149.85425	457.10260	443.68594	2340.95068	270.04254	401.62680	2298.98218	244.88136	314.44049	2397.12573	283.55273	335.76804	2320.72656	152.29150	448.62604	2263.48364	100.16647	397.80405	2280.62280	115.23689	346.68790	2237.37720	1018.14160	228.35509	2073.60278	998.63080	156.60960	2039.48108	643.49823	135.21660	2038.67480	600.16022	143.42632	2100.36157	633.77966	127.12814	2090.13232	591.82367	135.86375	2059.99048	512.97278	158.35240	2086.17920	499.30090	269.98053	2126.29224	403.37289	145.81514	2124.15698	358.86069	149.89682	0.00000	0.00000	0.00000	0.00000	0.00000	0.00000	2112.83740	99.61981	212.38745	2083.37109	112.40822	306.37048	2173.08301	65.90631	269.84323	1957.12085	55.31075	280.96899	1955.41211	67.57220	230.89648	1998.51575	44.84244	172.62158
299	2.48333	2238.90723	1002.29633	312.04419	0.00000	0.00000	0.00000	2059.25439	614.82251	432.49203	2041.17468	570.55060	431.59512	2004.62207	630.22498	452.66391	1995.51208	585.58771	446.61456	0.00000	0.00000	0.00000	2011.46606	522.56018	439.06528	2064.80200	442.02258	455.02466	2102.21338	415.96368	455.76382	2102.86890	487.93848	441.24561	2134.80859	456.68622	443.79599	2321.89746	265.83499	402.23019	2279.72876	241.68179	314.83328	2378.72461	277.68185	336.62839	2298.24902	148.73865	449.28839	2232.78564	100.94595	398.81534	2258.18066	113.11539	347.62149	2230.86646	1019.13660	228.26805	2066.90479	999.36102	156.05965	2037.33557	643.30621	134.67139	2036.95959	599.93567	142.67525	2098.43262	634.31641	126.85976	2088.67676	592.27295	135.41156	2059.17139	512.90210	157.65070	2084.81958	499.34314	269.50311	2125.94360	403.43756	145.31210	2123.90723	358.91876	149.42268	0.00000	0.00000	0.00000	0.00000	0.00000	0.00000	2112.86499	99.55980	212.34679	2083.38306	112.42252	306.31125	2173.12061	65.92489	269.82098	1957.15137	55.29582	280.96530	1955.42493	67.53403	230.86736	1998.52661	44.77351	172.60042
300	2.49167	2232.27612	1003.38336	312.19604	0.00000	0.00000	0.00000	2047.05249	617.17499	432.95758	0.00000	0.00000	0.00000	1992.85706	633.54797	451.57230	1982.70984	588.93213	446.06931	0.00000	0.00000	0.00000	1998.64966	525.43616	439.17722	2049.35962	443.11612	454.60349	2086.06958	416.21979	455.49072	2088.85791	488.16125	441.32840	2119.93042	456.08020	443.91586	2302.51807	260.92377	402.82800	2260.11377	237.97462	315.24347	2360.02832	271.05096	337.49448	2275.18335	144.50984	449.94922	2208.00220	99.03156	399.26651	2234.64551	110.03403	348.09009	2224.42993	1020.08307	228.21802	0.00000	0.00000	0.00000	2035.02600	643.05060	134.29585	2035.23828	599.70685	142.01952	2096.53955	634.89636	126.58347	2087.17017	592.71338	134.95070	2058.37964	512.79083	156.91228	2083.61084	499.40796	269.09183	2125.53174	403.49509	144.68027	2123.59106	358.96085	148.90819	0.00000	0.00000	0.00000	0.00000	0.00000	0.00000	2112.88403	99.54689	212.32091	2083.35986	112.42353	306.26205	2173.14087	65.92205	269.82614	1957.20959	55.30670	280.92059	1955.41638	67.48481	230.83925	1998.53027	44.71214	172.59531
301	2.50000	2225.66064	1004.29083	312.37030	0.00000	0.00000	0.00000	2035.16602	619.64313	433.38959	0.00000	0.00000	0.00000	1980.48853	636.81110	451.76468	1970.37756	592.39819	445.59006	0.00000	0.00000	0.00000	1985.61963	528.26630	438.24670	2034.41418	444.32086	454.34131	2070.07520	416.09946	455.23126	2075.09741	488.17514	441.45178	2105.20947	455.15149	444.23526	2282.87720	255.41830	403.40564	2240.25342	233.84828	315.58801	2340.99170	263.65829	338.41074	2251.61084	140.08206	450.39511	2178.10962	97.49651	395.61719	2210.55225	106.69413	348.30252	2218.03760	1020.90509	228.25061	2054.20142	1000.84009	154.72336	2032.69788	642.84442	133.98018	2033.62000	599.75757	141.23009	2094.55933	635.49542	126.29657	2085.65186	593.18970	134.48009	2057.54199	512.73083	156.20752	2082.37354	499.42017	268.51254	2125.02344	403.56021	144.06380	2123.20459	359.02139	148.36627	0.00000	0.00000	0.00000	0.00000	0.00000	0.00000	2112.89062	99.48653	212.28990	2083.36792	112.49768	306.20883	2173.15552	65.96185	269.81891	1957.25903	55.33392	280.89075	1955.43103	67.46078	230.80055	1998.59497	44.67349	172.53477
